<svg width="72" height="20" viewBox="0 0 72 20" fill="none" xmlns="http://www.w3.org/2000/svg">
<path fill-rule="evenodd" clip-rule="evenodd" d="M6.58685 2C4.0536 2 2 4.01072 2 6.49107L2.00181 6.49106C2.00061 6.52834 2 6.56577 2 6.60334C2 8.05217 2.90411 9.29424 4.19006 9.81818C4.33146 9.87579 4.33146 10.1798 4.19006 10.2374C2.90411 10.7613 2 12.0034 2 13.4522C2 13.4898 2.00061 13.5272 2.00181 13.5645H2C2 16.0448 4.0536 18.0556 6.58685 18.0556H13.8111C16.3444 18.0556 18.398 16.0448 18.398 13.5645V13.3156C18.3432 11.9257 17.4559 10.7448 16.2106 10.2374C16.0692 10.1798 16.0692 9.87579 16.2106 9.81818C17.4559 9.31078 18.3432 8.12989 18.398 6.73994V6.49106C18.398 4.01072 16.3444 2 13.8111 2H6.58685ZM7.38954 12.9722C7.38954 13.1133 7.50635 13.2277 7.65044 13.2277H12.7475C12.8916 13.2277 13.0084 13.1133 13.0084 12.9722C13.0084 12.8451 12.9125 12.7386 12.7859 12.7105C11.5346 12.4327 10.6003 11.3371 10.6003 10.0278C10.6003 8.7185 11.5346 7.62286 12.7859 7.34506C12.9125 7.31695 13.0084 7.21045 13.0084 7.08334C13.0084 6.94226 12.8916 6.82789 12.7475 6.82789H7.65044C7.50635 6.82789 7.38954 6.94226 7.38954 7.08334C7.38954 7.21045 7.48545 7.31695 7.61206 7.34506C8.86342 7.62286 9.79764 8.7185 9.79764 10.0278C9.79764 11.3371 8.86342 12.4327 7.61206 12.7105C7.48545 12.7386 7.38954 12.8451 7.38954 12.9722Z" fill="black"/>
<path d="M25.5757 10.1901C25.0262 9.65214 25.0262 8.77987 25.5757 8.24188C26.1251 7.70388 27.016 7.70388 27.5655 8.24188L29.2236 9.86542C29.7731 10.4034 29.7731 11.2757 29.2236 11.8137C28.6742 12.3517 27.7833 12.3517 27.2338 11.8137L25.5757 10.1901Z" fill="black"/>
<path fill-rule="evenodd" clip-rule="evenodd" d="M19.2007 6.82789C19.2007 4.16152 21.4083 2 24.1315 2H30.6678C33.391 2 35.5986 4.16152 35.5986 6.82789V13.2277C35.5986 15.894 33.391 18.0556 30.6678 18.0556H24.1315C21.4083 18.0556 19.2007 15.894 19.2007 13.2277V6.82789ZM24.1315 7.277C24.1315 7.02896 24.3369 6.82789 24.5902 6.82789H30.2091C30.4624 6.82789 30.6678 7.02896 30.6678 7.277V12.7786C30.6678 13.0266 30.4624 13.2277 30.2091 13.2277H24.5902C24.3369 13.2277 24.1315 13.0266 24.1315 12.7786V7.277Z" fill="black"/>
<path d="M36.86 2C36.6067 2 36.4013 2.20107 36.4013 2.44911V10.1962C36.4013 14.5368 39.9951 18.0556 44.4283 18.0556H52.3406C52.594 18.0556 52.7993 17.8545 52.7993 17.6064V13.6768C52.7993 13.4287 52.594 13.2277 52.3406 13.2277H42.5936C42.3403 13.2277 42.1349 13.0266 42.1349 12.7786V2.44911C42.1349 2.20107 41.9295 2 41.6762 2H36.86Z" fill="black"/>
<path d="M58.8769 2C59.1302 2 59.3356 2.20107 59.3356 2.44911V12.7786C59.3356 13.0266 59.5409 13.2277 59.7943 13.2277H63.8078C64.0611 13.2277 64.2664 13.0266 64.2664 12.7786V2.44911C64.2664 2.20107 64.4718 2 64.7251 2H69.5413C69.7946 2 70 2.20107 70 2.44911V12.9185C70 13.1148 69.9126 13.3013 69.7606 13.4293L64.5244 17.8384C64.358 17.9785 64.1457 18.0556 63.9262 18.0556H59.6758C59.4563 18.0556 59.2441 17.9785 59.0776 17.8384L53.8414 13.4293C53.6894 13.3013 53.602 13.1148 53.602 12.9185V2.44911C53.602 2.20107 53.8074 2 54.0607 2H58.8769Z" fill="black"/>
</svg>
