<svg class="svgLogo svgLogo--el-confidencial" height="100%" preserveaspectratio="xMidYMin" viewBox="0 0 528 65" width="100%" xmlns="http://www.w3.org/2000/svg"> <path class="st1" d="M4.3 61.2v-4.4h6.3V11.1H4.3V6.7h44.2v12.9H44v-7.9H23.3v17.5h12.9v-6.9h4.5v18.9h-4.5v-6.9H23.3v22.1h21.3v-7.9h4.5v12.9H4.3zM67.7 56.8h5v4.4H51.1v-4.4h5V8.7h-5V4.3h16.6v52.5zM140.5 45.6c-1.3 5.6-3.6 9.8-7 12.5-3.4 2.7-7.9 4.1-13.5 4.1-8.3 0-14.9-2.5-19.7-7.6-4.8-5.1-7.2-12-7.2-20.7s2.4-15.6 7.2-20.7c4.8-5.1 11.4-7.6 19.7-7.6 2.9 0 5.9.4 9.1 1.2 3.2.8 6.5 2 10 3.5v13.4H135c-.9-4.6-2.4-8-4.7-10.3-2.3-2.3-5.2-3.4-8.9-3.4-4.8 0-8.4 2-10.7 5.9-2.3 3.9-3.5 9.9-3.5 18s1.2 14.1 3.5 18c2.3 3.9 5.9 5.8 10.7 5.8 3.3 0 6-1 8-3 2.1-2 3.6-5.1 4.5-9.2h6.6zM162.7 62.3c-6.2 0-11-1.8-14.5-5.5-3.5-3.6-5.2-8.7-5.2-15 0-6.4 1.7-11.4 5.2-15 3.5-3.6 8.3-5.4 14.5-5.4 6.2 0 11 1.8 14.5 5.4 3.5 3.6 5.2 8.6 5.2 15s-1.8 11.4-5.3 15c-3.5 3.7-8.3 5.5-14.4 5.5zm0-4.1c2.4 0 4.2-1.2 5.2-3.5s1.5-6.6 1.5-12.9c0-6.2-.5-10.5-1.5-12.8-1-2.3-2.7-3.5-5.2-3.5s-4.2 1.2-5.2 3.5-1.5 6.6-1.5 12.8c0 6.2.5 10.5 1.5 12.8.9 2.4 2.7 3.6 5.2 3.6z"></path><path class="st1" d="M181.9 61.2v-4.4h5v-30h-5v-4.4h16.6v5.5c1.4-2.3 3-4 4.8-5 1.8-1 4.1-1.5 6.8-1.5 3.9 0 6.9 1.3 8.9 3.9 2 2.6 3 6.4 3 11.4V57h5v4.4h-20.9V57h4.2V36.1c0-3.3-.4-5.6-1.1-6.9-.8-1.3-2.1-1.9-3.9-1.9-2.3 0-4.1 1-5.2 2.9-1.1 1.9-1.6 5-1.6 9.1v17.4h4.2v4.4h-20.8zM259.2 14.1h-3.7c-.2-1.9-.7-3.3-1.5-4.2-.8-.9-2-1.4-3.5-1.4-1.8 0-3 .7-3.8 2.1-.8 1.4-1.2 3.7-1.2 6.8v5h8.8v4.4h-8.8v30h6.7v4.4h-23.4v-4.4h5v-30h-5.2v-4.4h5.2v-4.9c0-4.3 1.2-7.6 3.7-9.8 2.5-2.2 6.1-3.3 10.9-3.3 1.9 0 3.7.1 5.5.3 1.8.2 3.5.6 5.2 1v8.4z"></path><path class="st1" d="M273.4 56.8h5v4.4h-21.6v-4.4h5v-30h-5v-4.4h16.6v34.4zm-12.8-45.4c0-2 .6-3.6 1.8-5 1.2-1.4 2.7-2 4.5-2 1.7 0 3.2.7 4.4 2 1.2 1.3 1.8 3 1.8 5 0 1.9-.6 3.6-1.8 4.9-1.2 1.3-2.7 2-4.4 2-1.8 0-3.3-.7-4.5-2-1.2-1.3-1.8-3-1.8-4.9zM316.9 56.8h5v4.4h-16.6v-4.9c-1 2-2.3 3.5-4 4.5-1.7 1-3.8 1.5-6.2 1.5-4.9 0-8.8-1.8-11.7-5.5-2.8-3.7-4.3-8.7-4.3-15 0-6.4 1.4-11.4 4.3-15 2.8-3.6 6.7-5.4 11.7-5.4 2.5 0 4.5.5 6.2 1.5 1.7 1 3 2.5 4 4.5V8.7h-5V4.3H317v52.5zm-11.7-13.1v-3.8c0-4.5-.5-7.8-1.6-9.8-1-2-2.7-3-5-3-2.4 0-4.1 1.1-5.1 3.2s-1.5 6-1.5 11.6.5 9.4 1.5 11.6c1 2.1 2.7 3.2 5.1 3.2 2.3 0 4-1 5-3 1.1-2.2 1.6-5.5 1.6-10zM359.4 43.6h-24v.3c0 5 .7 8.6 2 10.9 1.4 2.2 3.6 3.3 6.6 3.3 2.5 0 4.5-.7 6.1-2.2 1.6-1.5 2.6-3.6 3-6.5h5.5c-1 4.4-2.8 7.7-5.6 9.7-2.8 2.1-6.7 3.1-11.7 3.1-6.1 0-10.7-1.8-13.9-5.3-3.2-3.5-4.8-8.6-4.8-15.2 0-6.4 1.6-11.5 5-15.1 3.3-3.6 7.9-5.4 13.8-5.4 5.8 0 10.2 1.9 13.3 5.7 2.9 3.9 4.5 9.4 4.7 16.7zm-12.8-4.3c0-5.1-.4-8.7-1.3-10.8-.9-2.1-2.3-3.1-4.4-3.1-2 0-3.4 1-4.3 3-.9 2-1.3 5.4-1.3 10.2v.7h11.3zM359.8 61.2v-4.4h5v-30h-5v-4.4h16.6v5.5c1.4-2.3 3-4 4.8-5 1.8-1 4.1-1.5 6.8-1.5 3.9 0 6.9 1.3 8.9 3.9 2 2.6 3 6.4 3 11.4V57h5v4.4H384V57h4.2V36.1c0-3.3-.4-5.6-1.1-6.9-.8-1.3-2.1-1.9-3.9-1.9-2.3 0-4.1 1-5.2 2.9-1.1 1.9-1.6 5-1.6 9.1v17.4h4.2v4.4h-20.8zM440.7 49.1c-.9 4.4-2.6 7.7-5.1 9.9-2.6 2.2-6.1 3.3-10.5 3.3-6.2 0-11.1-1.8-14.5-5.4-3.4-3.6-5.1-8.6-5.1-15.1 0-6.4 1.7-11.5 5.1-15.1 3.4-3.6 8.1-5.4 14-5.4 2.4 0 4.9.3 7.4.8s5 1.3 7.6 2.3v10.8h-3.7c-.3-3.3-1.2-5.7-2.6-7.3-1.4-1.6-3.3-2.4-5.8-2.4-3.2 0-5.6 1.2-6.9 3.7-1.4 2.4-2.1 6.7-2.1 12.7 0 5.9.7 10.1 2 12.6s3.5 3.8 6.5 3.8c2.3 0 4.2-.8 5.6-2.3 1.4-1.6 2.3-3.8 2.6-6.7h5.5zM458.9 56.8h5v4.4h-21.6v-4.4h5v-30h-5v-4.4h16.6v34.4zm-12.8-45.4c0-2 .6-3.6 1.8-5 1.2-1.4 2.7-2 4.5-2 1.7 0 3.2.7 4.4 2 1.2 1.3 1.8 3 1.8 5 0 1.9-.6 3.6-1.8 4.9-1.2 1.3-2.7 2-4.4 2-1.8 0-3.3-.7-4.5-2-1.1-1.3-1.8-3-1.8-4.9zM498.9 37.4v19.4h5v4.4h-16.6v-4.9c-1.5 2-3.2 3.6-5.1 4.5-1.9 1-4 1.5-6.4 1.5-3.6 0-6.3-1.1-8.2-3.2-1.9-2.1-2.9-5.2-2.9-9.2 0-4.4 1.4-7.6 4.1-9.8 2.7-2.2 6.9-3.3 12.4-3.3h6.1v-2.3c0-3.1-.7-5.5-2-7s-3.4-2.2-6.2-2.2c-2.3 0-4.1.5-5.4 1.6-1.3 1.1-2.1 2.8-2.7 5.2h-3.7v-8.4c2.1-.8 4.3-1.5 6.5-1.9 2.2-.4 4.6-.6 7.1-.6 6.3 0 10.8 1.3 13.7 3.9 2.9 2.7 4.3 6.7 4.3 12.3zM487.3 49v-7.8h-4.4c-2.2 0-3.8.7-5 2-1.2 1.3-1.8 3.2-1.8 5.7s.4 4.3 1.3 5.5c.9 1.2 2.1 1.8 3.9 1.8 1.8 0 3.3-.7 4.3-2 1.1-1.3 1.7-3 1.7-5.2zM521.9 56.8h5v4.4h-21.6v-4.4h5V8.7h-5V4.3h16.6v52.5z"></path></svg>