<?xml version="1.0" encoding="utf-8"?>
<!-- Generator: Adobe Illustrator 23.0.1, SVG Export Plug-In . SVG Version: 6.00 Build 0)  -->
<!DOCTYPE svg PUBLIC "-//W3C//DTD SVG 1.1//EN" "http://www.w3.org/Graphics/SVG/1.1/DTD/svg11.dtd" [
	<!ENTITY ns_extend "http://ns.adobe.com/Extensibility/1.0/">
	<!ENTITY ns_ai "http://ns.adobe.com/AdobeIllustrator/10.0/">
	<!ENTITY ns_graphs "http://ns.adobe.com/Graphs/1.0/">
	<!ENTITY ns_vars "http://ns.adobe.com/Variables/1.0/">
	<!ENTITY ns_imrep "http://ns.adobe.com/ImageReplacement/1.0/">
	<!ENTITY ns_sfw "http://ns.adobe.com/SaveForWeb/1.0/">
	<!ENTITY ns_custom "http://ns.adobe.com/GenericCustomNamespace/1.0/">
	<!ENTITY ns_adobe_xpath "http://ns.adobe.com/XPath/1.0/">
]>
<svg version="1.1" id="Capa_1" xmlns:x="&ns_extend;" xmlns:i="&ns_ai;" xmlns:graph="&ns_graphs;"
	 xmlns="http://www.w3.org/2000/svg" xmlns:xlink="http://www.w3.org/1999/xlink" x="0px" y="0px" viewBox="0 0 483.9 250"
	 enable-background="new 0 0 483.9 250" xml:space="preserve">
<metadata>
	<sfw  xmlns="&ns_sfw;">
		<slices></slices>
		<sliceSourceBounds  bottomLeftOrigin="true" height="250" width="483.9" x="-40.4" y="-21"></sliceSourceBounds>
	</sfw>
</metadata>
<linearGradient id="SVGID_1_" gradientUnits="userSpaceOnUse" x1="92.4439" y1="-34.806" x2="387.7236" y2="260.4739" gradientTransform="matrix(1 0 0 -1 0 251.7)">
	<stop  offset="0" style="stop-color:#F5A717"/>
	<stop  offset="1" style="stop-color:#E6511F"/>
</linearGradient>
<path fill="url(#SVGID_1_)" d="M40.7,187.3c0,10.6-6.4,15.4-20.2,15.4C6.4,202.7,0,197.6,0,187.3V61c0-11.3,5.4-16.1,17.6-16.1
	c11.3,0,15.1,2.5,17.6,12.2c0.6,1.9,1.6,2.9,2.5,2.9c1,0,1.6-0.4,3.8-2.5c8-7.7,21.5-12.5,35.3-12.5c8.3,0,12.5,4.4,12.5,13.2
	c0,20.2-3.8,27.6-13.8,27.6c-24.4,0-35.9,13.2-34.9,39.7V187.3z M104.5,16.1C104.5,5.2,111,0,124.8,0c14.2,0,20.5,5.2,20.5,16.1v23
	c0,4.8,1.6,6.4,6.4,6.4h10.9c10.9,0,16.1,6.1,16.1,19.2c0,12.8-5.2,19-16.1,19h-10.9c-4.4,0-6.4,1.9-6.4,6.4v48.1
	c0,21.8,7.1,32.4,21.5,32.4c3.5,0,7.1-0.4,16.7-1.3c1-0.4,1.9-0.4,3.2-0.4c7.1,0,10.2,3.5,10.2,11.9c0,15.7-13.8,24.4-38.2,24.4
	c-35.9,0-54.2-23.4-54.2-69.3C104.5,135.9,104.5,16.1,104.5,16.1z M285.8,67.7c6.5-18.6,11.3-23,24.4-23c12.2,0,18.6,4.8,18.6,13.8
	c0,2.3-0.4,3.2-1.6,7.1l-42.7,115.1c-6.5,17.6-11.5,22.1-24.4,22.1c-12.8,0-18-4.4-24.4-22.1L193.1,65.5c-1.3-3.2-1.6-4.8-1.6-7.1
	c0-9,6.5-13.8,18.6-13.8c13.2,0,17.6,4.4,24,23l21.5,61.9c1,2.5,2.3,3.8,4.4,3.8c1.9,0,3.5-1.3,4.2-3.8L285.8,67.7z M375.3,158.2
	c-3.8,0-5.4,1.6-5.4,4.8c0,31.8,20.9,51.4,55.2,51.4c12.2,0,20.5-1.9,35.6-8c5.2-1.9,7.3-2.5,9.6-2.5c5.4,0,9.4,4.8,9.4,12.2
	c0,19.2-26.3,34-61.2,34c-57.1,0-89.2-36.6-89.2-101.7c0-64.5,30.8-103.3,81.7-103.3c43.6,0,72.9,32.8,72.9,81.5
	c0,24.4-6.4,31.8-27.8,31.8h-80.8V158.2z M439.4,125.8c3.8,0,5.2-1.6,5.2-5.8c0-29.5-12.8-45.5-35.9-45.5
	c-22.8,0-38.2,19.2-38.2,46.8c0,2.9,1.9,4.4,5.2,4.4C375.7,125.8,439.4,125.8,439.4,125.8z"/>
</svg>
