<svg xmlns="http://www.w3.org/2000/svg" width="260" height="28" viewBox="0 0 260 28" fill="none">
  <path d="M2,14 A12,12 0 0,0 26,14 A12,12 0 0,1 50,14 A12,12 0 0,0 74,14 A12,12 0 0,1 98,14 A12,12 0 0,0 122,14 A12,12 0 0,1 146,14 A12,12 0 0,0 170,14 A12,12 0 0,1 194,14 A12,12 0 0,0 218,14 A12,12 0 0,1 242,14 A12,12 0 0,0 258,14" stroke="#FFDC00" stroke-width="9" stroke-linecap="round" stroke-linejoin="round" opacity="0.3"/>
  <path d="M2,14 A12,12 0 0,0 26,14 A12,12 0 0,1 50,14 A12,12 0 0,0 74,14 A12,12 0 0,1 98,14 A12,12 0 0,0 122,14 A12,12 0 0,1 146,14 A12,12 0 0,0 170,14 A12,12 0 0,1 194,14 A12,12 0 0,0 218,14 A12,12 0 0,1 242,14 A12,12 0 0,0 258,14" stroke="#FFDC00" stroke-width="4" stroke-linecap="round" stroke-linejoin="round" opacity="0.95"/>
</svg>
