<svg xmlns="http://www.w3.org/2000/svg" width="260" height="28" viewBox="0 0 260 28" fill="none">
  <path d="M4,20 C19,8 35,24 54,16 C73,8 89,24 108,16 C127,8 143,24 162,16 C181,8 197,24 216,16 C232,8 248,22 256,14" stroke="#FFDC00" stroke-width="9" stroke-linecap="round" stroke-linejoin="round" opacity="0.3"/>
  <path d="M4,20 C19,8 35,24 54,16 C73,8 89,24 108,16 C127,8 143,24 162,16 C181,8 197,24 216,16 C232,8 248,22 256,14" stroke="#FFDC00" stroke-width="4" stroke-linecap="round" stroke-linejoin="round" opacity="0.95"/>
</svg>
